/* XPM */
static const char *3_xpm[] = {
/* columns rows colors chars-per-pixel */
"128 128 2 1",
"  c #FFFFFF",
". c #014B94",
/* pixels */
"                                                                                                                                ",
"                                                                                                                                ",
"                                                                                                                                ",
"                                                    ........................                                                    ",
"                                                ................................                                                ",
"                                            ........................................                                            ",
"                                          ..........................................                                            ",
"                                       ............................................. ....                                       ",
"                                     ............................................... ......                                     ",
"                                   ................................................  ........                                   ",
"                                 ..................................................  ..........                                 ",
"                               .................................................... ............                                ",
"                              ..................................................... ..............                              ",
"                            ......................................................  ................                            ",
"                           .......................................................  .................                           ",
"                          ........................................................ ...................                          ",
"                        .........................................................   ....................                        ",
"                       ..........................................................  ......................                       ",
"                      ...........................................................  .......................                      ",
"                     ............................................................  ........................                     ",
"                    ............................................................   .........................                    ",
"                   .............................................................   ..........................                   ",
"                  ..............................................................  ............................                  ",
"                 ..............................................................   .............................                 ",
"                ...............................................................   ..............................                ",
"               ................................................................   ..............................                ",
"               ...............................................................    ...............................               ",
"              ................................................................   .................................              ",
"             .................................................................   ..................................             ",
"            .................................................................   ....................................            ",
"            .................................................................   ....................................            ",
"           ..................................................................  . ....................................           ",
"          ..................................................................   .......................................          ",
"          ..................................................................  . ......................................          ",
"         ..................................................................    ........................................         ",
"         ..................................................................   .........................................         ",
"        ...................................................................   ..........................................        ",
"        ..................................................................   ...........................................        ",
"       ...................................................................   ............................................       ",
"       ..................................................................   .............................................       ",
"      ...................................................................   ..............................................      ",
"      ..................................................................   . .............................................      ",
"      ..................................................................    ..............................................      ",
"     ...................................................................   ................................................     ",
"     ..................................................................   .................................................     ",
"     ..................................................................  ..................................................     ",
"    ..................................................................    ..................................................    ",
"    ..................................................................  ....................................................    ",
"    .................................................................   ....................................................    ",
"   ..................................................................   .....................................................   ",
"   .................................................................   ......................................................   ",
"   .................................................................   ......................................................   ",
"   ................................................................   .......................................................   ",
"   ................................................................   .......................................................   ",
"  ................................................................   .........................................................  ",
"  ...............................................................    .........................................................  ",
"  ...............................................................   ..........................................................  ",
"  ..............................................................   ...........................................................  ",
"  ..............................................................   ...........................................................  ",
"  .............................................................   ............................................................  ",
"  ............................................................   .............................................................  ",
"  ............................................................   .............................................................  ",
"  ...........................................................   ..............................................................  ",
"  ...........................................................   ..............................................................  ",
"  ..........................................................   ...............................................................  ",
"  .........................................................  .................................................................  ",
"  ........................................................    ................................................................  ",
"  ........................................................   .................................................................  ",
"  .......................................................  . .................................................................  ",
"  ......................................................   ...................................................................  ",
"  ......................................................  ....................................................................  ",
"  .....................................................  .....................................................................  ",
"  ....................................................   .....................................................................  ",
"  ...................................................   ......................................................................  ",
"  ..................................................   .......................................................................  ",
"  .................................................  ... .....................................................................  ",
"   ................................................  ........................................................................   ",
"   ...............................................  .........................................................................   ",
"   ..............................................  . ........................................................................   ",
"   .............................................   ..........................................................................   ",
"   ............................................   ...........................................................................   ",
"    ..........................................  ............................................................................    ",
"    .........................................   ............................................................................    ",
"    ........................................  ..............................................................................    ",
"     ......................................   .............................................................................     ",
"     .....................................   ..............................................................................     ",
"     ...................................   ................................................................................     ",
"      .................................   . ..............................................................................      ",
"      ................................   .................................................................................      ",
"      ...............................  . ................................................................................       ",
"       .............................   ..................................................................................       ",
"       ...........................  . ...................................................................................       ",
"        .........................   ....................................................................................        ",
"        .......................    .....................................................................................        ",
"         .....................   ......................................................................................         ",
"         ...................    .......................................................................................         ",
"          .................   ........................................................................................          ",
"           ..............    .........................................................................................          ",
"           ............    ..........................................................................................           ",
"            .........   . ..........................................................................................            ",
"            .......    .............................................................................................            ",
"             ....    . . ..........................................................................................             ",
"                   ...............................................................................................              ",
"                  ...............................................................................................               ",
"                .................................................................................................               ",
"                 ...............................................................................................                ",
"                 ..............................................................................................                 ",
"                  ............................................................................................                  ",
"                   ..........................................................................................                   ",
"                    ........................................................................................                    ",
"                     ......................................................................................                     ",
"                      ....................................................................................                      ",
"                       ..................................................................................                       ",
"                        ................................................................................                        ",
"                          ............................................................................                          ",
"                           ..........................................................................                           ",
"                            ........................................................................                            ",
"                              ....................................................................                              ",
"                                .................................................................                               ",
"                                 ..............................................................                                 ",
"                                    .........................................................                                   ",
"                                     ......................................................                                     ",
"                                       ..................................................                                       ",
"                                          ............................................                                          ",
"                                             ......................................                                             ",
"                                                ................................                                                ",
"                                                     ......................                                                     ",
"                                                                                                                                "
};
