/* XPM */
static const char *convert2_xpm[] = {
/* columns rows colors chars-per-pixel */
"64 64 2 1",
"  c #FFFFFF",
". c #014B94",
/* pixels */
"                               ....                             ",
"                         ................                       ",
"                     ........................                   ",
"                   ............................                 ",
"                 ................................               ",
"                ..................................              ",
"              ............................ .........            ",
"             ........................................           ",
"            ..........................................          ",
"           ............................................         ",
"          ............................... ..............        ",
"         ................................ ...............       ",
"        ................................. ................      ",
"       ................................. ..................     ",
"       ................................. ..................     ",
"      ......................................................    ",
"     .................................. .....................   ",
"     .................................. .....................   ",
"    .................................. .......................  ",
"    .................................. .......................  ",
"    ................................. ........................  ",
"   .................................. ......................... ",
"   ............................................................ ",
"   ................................. .......................... ",
"  ..............................................................",
"  ................................. ............................",
"  ..............................................................",
"  ................................ .............................",
"  ............................... ..............................",
"  ..............................................................",
"  .............................. ...............................",
"  ..............................................................",
"  ..............................................................",
"  ..............................................................",
"  ........................... ..................................",
"  ..............................................................",
"  ..............................................................",
"  ..............................................................",
"  ..............................................................",
"  ....................... ......................................",
"   ..................... ...................................... ",
"   .................... ....................................... ",
"   ............................................................ ",
"    ..........................................................  ",
"    ..........................................................  ",
"    .............. ...........................................  ",
"     ........................................................   ",
"     .......... .............................................   ",
"      ......................................................    ",
"       ....................................................     ",
"       ....................................................     ",
"         .................................................      ",
"         ................................................       ",
"          ..............................................        ",
"           ............................................         ",
"            ..........................................          ",
"             ........................................           ",
"              ......................................            ",
"                ..................................              ",
"                 ................................               ",
"                   ............................                 ",
"                      ......................                    ",
"                         ................                       ",
"                                                                "
};
