/* XPM */
static const char *convert_xpm[] = {
/* columns rows colors chars-per-pixel */
"16 16 2 1",
"  c #FFFFFF",
". c #014B94",
/* pixels */
"       ..       ",
"    ........    ",
"   ..........   ",
"  ............  ",
" .............. ",
" .............. ",
" .............. ",
" .............. ",
" .............. ",
" .............. ",
" .............. ",
" .............. ",
"  ............  ",
"   ..........   ",
"    ........    ",
"                "
};
